<svg xmlns="http://www.w3.org/2000/svg" viewBox="0 0 256 256" role="img" aria-label="Female avatar">
  <defs>
    <linearGradient id="shirtFemale" x1="0" y1="0" x2="1" y2="0">
      <stop offset="0%" stop-color="#8b7cdd"/>
      <stop offset="100%" stop-color="#5766c4"/>
    </linearGradient>
    <linearGradient id="hairFemale" x1="0" y1="0" x2="1" y2="1">
      <stop offset="0%" stop-color="#38426f"/>
      <stop offset="100%" stop-color="#1a2749"/>
    </linearGradient>
  </defs>
  <path d="M40 238c8-34 33-55 88-55s80 21 88 55H40z" fill="url(#shirtFemale)"/>
  <path d="M67 102c0-50 25-76 61-76 37 0 61 26 61 76 0 46-18 75-34 89H101c-16-14-34-43-34-89z" fill="url(#hairFemale)"/>
  <ellipse cx="128" cy="113" rx="43" ry="49" fill="#f5d5bc"/>
  <path d="M87 102c5-29 21-46 41-46s36 17 41 46c-8-10-22-17-41-17s-33 7-41 17z" fill="url(#hairFemale)"/>
  <circle cx="111" cy="112" r="3.8" fill="#1d2438"/>
  <circle cx="145" cy="112" r="3.8" fill="#1d2438"/>
  <path d="M114 131c4 3 9 5 14 5s10-2 14-5" stroke="#b8836c" stroke-width="3" fill="none" stroke-linecap="round"/>
</svg>
