<svg xmlns="http://www.w3.org/2000/svg" viewBox="0 0 320 320" role="img" aria-label="Female avatar">
  <defs>
    <linearGradient id="femaleHair" x1="0" y1="0" x2="1" y2="1">
      <stop offset="0%" stop-color="#34406f"/>
      <stop offset="100%" stop-color="#1a274f"/>
    </linearGradient>
    <linearGradient id="femaleShirt" x1="0" y1="0" x2="1" y2="0">
      <stop offset="0%" stop-color="#8d7be0"/>
      <stop offset="100%" stop-color="#5f67c9"/>
    </linearGradient>
  </defs>

  <path d="M50 294c12-46 49-72 110-72 62 0 99 26 110 72H50z" fill="url(#femaleShirt)"/>
  <path d="M85 117c0-60 30-93 75-93 46 0 75 33 75 93 0 59-25 96-42 113H127c-18-17-42-54-42-113z" fill="url(#femaleHair)"/>
  <ellipse cx="160" cy="136" rx="57" ry="65" fill="#f4d4bb"/>
  <path d="M108 120c4-39 24-62 52-62s48 23 52 62c-10-16-29-28-52-28s-42 12-52 28z" fill="url(#femaleHair)"/>
  <circle cx="137" cy="136" r="5" fill="#1f2637"/>
  <circle cx="182" cy="136" r="5" fill="#1f2637"/>
  <path d="M142 160c6 5 11 7 18 7 6 0 12-2 18-7" stroke="#b78269" stroke-width="4" fill="none" stroke-linecap="round"/>
</svg>
